<svg width="121" height="60" viewBox="0 0 121 60" fill="none" xmlns="http://www.w3.org/2000/svg">
<path d="M19.24 41.08V45.76H16.16V41.04C12.96 40.5867 10.44 38.76 8.6 35.56L10.84 33.96C12.6533 36.92 15 38.4 17.88 38.4C19.3467 38.4 20.5333 38.0667 21.44 37.4C22.3467 36.7067 22.8 35.7733 22.8 34.6C22.8 33.6933 22.48 32.9333 21.84 32.32C21.2267 31.7067 20.2 31.0667 18.76 30.4L15.92 29.2C14.08 28.4267 12.6933 27.5467 11.76 26.56C10.8267 25.5467 10.36 24.28 10.36 22.76C10.36 21.1867 10.8933 19.8667 11.96 18.8C13.0267 17.7067 14.4267 17.0267 16.16 16.76V12H19.24V16.68C21.88 17.0533 23.9333 18.48 25.4 20.96L23.28 22.6C21.8933 20.4667 20.0933 19.4 17.88 19.4C16.6267 19.4 15.5733 19.6933 14.72 20.28C13.8933 20.84 13.48 21.6533 13.48 22.72C13.48 23.6267 13.7467 24.3467 14.28 24.88C14.84 25.4133 15.8133 26.0133 17.2 26.68L20.12 27.88C22.0667 28.68 23.52 29.6133 24.48 30.68C25.44 31.7467 25.92 33.04 25.92 34.56C25.92 36.32 25.3067 37.7867 24.08 38.96C22.8533 40.1333 21.24 40.84 19.24 41.08ZM38.1253 15.6H39.2853V42H36.1653V19.28L30.4053 21.08L29.6453 18.4L38.1253 15.6ZM51.4016 39.2H63.8416V42H45.4816V41.2L54.8816 31.2C56.5882 29.4133 57.7882 27.96 58.4816 26.84C59.1749 25.6933 59.5216 24.52 59.5216 23.32C59.5216 21.8267 59.0549 20.5733 58.1216 19.56C57.1882 18.5467 55.9616 18.04 54.4416 18.04C52.8416 18.04 51.5616 18.5733 50.6016 19.64C49.6416 20.7333 49.1616 22.0133 49.1616 23.48C49.1616 24.2267 49.2416 24.96 49.4016 25.68H46.2016C46.0149 25.0133 45.9216 24.24 45.9216 23.36C45.9216 21.1733 46.7216 19.2667 48.3216 17.64C49.9216 15.9867 51.9616 15.16 54.4416 15.16C56.8416 15.16 58.8282 15.9333 60.4016 17.48C61.9749 19 62.7616 20.8933 62.7616 23.16C62.7616 24.4133 62.5082 25.5867 62.0016 26.68C61.5216 27.72 60.9349 28.6933 60.2416 29.6C59.5482 30.5067 58.5482 31.6533 57.2416 33.04L51.4016 39.2ZM86.0244 33.64C86.0244 36.2267 85.1044 38.3467 83.2644 40C81.4244 41.6267 79.2244 42.44 76.6644 42.44C74.6377 42.44 72.8377 41.96 71.2644 41C69.7177 40.0133 68.4777 38.68 67.5444 37L69.7044 35.4C71.5177 38.1733 73.8244 39.56 76.6244 39.56C78.411 39.56 79.8777 39.0133 81.0244 37.92C82.1977 36.8267 82.7844 35.4133 82.7844 33.68C82.7844 31.9467 82.1977 30.6 81.0244 29.64C79.8777 28.68 78.2244 28.2 76.0644 28.2H70.1044V15.6H84.5444V18.4H73.2244V25.8C74.5577 25.5867 75.811 25.48 76.9844 25.48C79.571 25.48 81.7177 26.1867 83.4244 27.6C85.1577 29.0133 86.0244 31.0267 86.0244 33.64ZM93.2119 38.56C91.6119 35.9467 90.8119 32.6133 90.8119 28.56C90.8119 24.5067 91.6252 21.2667 93.2519 18.84C94.9052 16.3867 97.3185 15.16 100.492 15.16C103.692 15.16 106.092 16.3867 107.692 18.84C109.319 21.2667 110.132 24.5067 110.132 28.56C110.132 32.6133 109.332 35.9467 107.732 38.56C106.132 41.1467 103.719 42.44 100.492 42.44C97.2652 42.44 94.8385 41.1467 93.2119 38.56ZM106.892 28.6C106.892 21.56 104.759 18.04 100.492 18.04C96.1985 18.04 94.0519 21.56 94.0519 28.6C94.0519 32.0667 94.5852 34.76 95.6519 36.68C96.7185 38.6 98.3319 39.56 100.492 39.56C102.652 39.56 104.252 38.6 105.292 36.68C106.359 34.76 106.892 32.0667 106.892 28.6Z" fill="white"/>
<path d="M1 44.5L120 14.5" stroke="#FAB31B" stroke-width="2"/>
</svg>
