<svg width="121" height="60" viewBox="0 0 121 60" fill="none" xmlns="http://www.w3.org/2000/svg">
<path d="M26.24 41.08V45.76H23.16V41.04C19.96 40.5867 17.44 38.76 15.6 35.56L17.84 33.96C19.6533 36.92 22 38.4 24.88 38.4C26.3467 38.4 27.5333 38.0667 28.44 37.4C29.3467 36.7067 29.8 35.7733 29.8 34.6C29.8 33.6933 29.48 32.9333 28.84 32.32C28.2267 31.7067 27.2 31.0667 25.76 30.4L22.92 29.2C21.08 28.4267 19.6933 27.5467 18.76 26.56C17.8267 25.5467 17.36 24.28 17.36 22.76C17.36 21.1867 17.8933 19.8667 18.96 18.8C20.0267 17.7067 21.4267 17.0267 23.16 16.76V12H26.24V16.68C28.88 17.0533 30.9333 18.48 32.4 20.96L30.28 22.6C28.8933 20.4667 27.0933 19.4 24.88 19.4C23.6267 19.4 22.5733 19.6933 21.72 20.28C20.8933 20.84 20.48 21.6533 20.48 22.72C20.48 23.6267 20.7467 24.3467 21.28 24.88C21.84 25.4133 22.8133 26.0133 24.2 26.68L27.12 27.88C29.0667 28.68 30.52 29.6133 31.48 30.68C32.44 31.7467 32.92 33.04 32.92 34.56C32.92 36.32 32.3067 37.7867 31.08 38.96C29.8533 40.1333 28.24 40.84 26.24 41.08ZM55.4453 24.08C55.4453 25.0933 55.2853 26.0667 54.9653 27C54.6986 27.8533 54.3386 28.6267 53.8853 29.32C53.4586 30.04 52.7653 31.0933 51.8053 32.48L45.2453 42H41.5653L48.2853 32.32C47.6453 32.56 46.8986 32.68 46.0453 32.68C43.7253 32.68 41.712 31.84 40.0053 30.16C38.2986 28.48 37.4453 26.44 37.4453 24.04C37.4453 21.5333 38.3253 19.4267 40.0853 17.72C41.8453 16.0133 43.9786 15.16 46.4853 15.16C48.9653 15.16 51.072 16.0267 52.8053 17.76C54.5653 19.4667 55.4453 21.5733 55.4453 24.08ZM52.3653 24C52.3653 22.2933 51.8053 20.8667 50.6853 19.72C49.5653 18.5733 48.1653 18 46.4853 18C44.8053 18 43.392 18.5733 42.2453 19.72C41.0986 20.8667 40.5253 22.2933 40.5253 24C40.5253 25.68 41.0986 27.1067 42.2453 28.28C43.392 29.4533 44.8053 30.04 46.4853 30.04C48.1653 30.04 49.5653 29.4533 50.6853 28.28C51.8053 27.1067 52.3653 25.68 52.3653 24ZM62.5166 38.56C60.9166 35.9467 60.1166 32.6133 60.1166 28.56C60.1166 24.5067 60.9299 21.2667 62.5566 18.84C64.2099 16.3867 66.6232 15.16 69.7966 15.16C72.9966 15.16 75.3966 16.3867 76.9966 18.84C78.6232 21.2667 79.4366 24.5067 79.4366 28.56C79.4366 32.6133 78.6366 35.9467 77.0366 38.56C75.4366 41.1467 73.0232 42.44 69.7966 42.44C66.5699 42.44 64.1432 41.1467 62.5166 38.56ZM76.1966 28.6C76.1966 21.56 74.0632 18.04 69.7966 18.04C65.5032 18.04 63.3566 21.56 63.3566 28.6C63.3566 32.0667 63.8899 34.76 64.9566 36.68C66.0232 38.6 67.6366 39.56 69.7966 39.56C71.9566 39.56 73.5566 38.6 74.5966 36.68C75.6632 34.76 76.1966 32.0667 76.1966 28.6ZM87.1259 38.56C85.5259 35.9467 84.7259 32.6133 84.7259 28.56C84.7259 24.5067 85.5393 21.2667 87.1659 18.84C88.8193 16.3867 91.2326 15.16 94.4059 15.16C97.6059 15.16 100.006 16.3867 101.606 18.84C103.233 21.2667 104.046 24.5067 104.046 28.56C104.046 32.6133 103.246 35.9467 101.646 38.56C100.046 41.1467 97.6326 42.44 94.4059 42.44C91.1793 42.44 88.7526 41.1467 87.1259 38.56ZM100.806 28.6C100.806 21.56 98.6726 18.04 94.4059 18.04C90.1126 18.04 87.9659 21.56 87.9659 28.6C87.9659 32.0667 88.4993 34.76 89.5659 36.68C90.6326 38.6 92.2459 39.56 94.4059 39.56C96.5659 39.56 98.1659 38.6 99.2059 36.68C100.273 34.76 100.806 32.0667 100.806 28.6Z" fill="white"/>
<path d="M1 44.5L120 14.5" stroke="#FAB31B" stroke-width="2"/>
</svg>
